# xmcd
#
# Track frame offsets:
#	150
#	20761
#	36758
#	51227
#	67945
#	83242
#	99892
#	118355
#	131739
#	148911
#	161200
#	183561
#	198277
#	209630
#	218677
#	232223
#	247468
#	268856
#	286081
#
# Disc length: 4097 seconds
#
# Revision: 1
# Processed by: cddbd v1.5.2PL0 Copyright (c) Steve Scherf et al.
# Submitted via: dBpowerAMP V4.0
#
DISCID=350fff13
DTITLE=Various Artist - Hott Urban Volume 30 Can
DYEAR=2017
DGENRE=Urban
TTITLE0=SZA - The Weekend
TTITLE1=G-Eazy ft. A$ap Rocky And Cardi B - No Limit
TTITLE2=Post Malone ft. 21 Savage - Rockstar
TTITLE3=Weeknd, The  - Die For You
TTITLE4=Fetty Wap - There She Go
TTITLE5=Lil Uzi Vert and Meek Mill - The Way Life Goes
TTITLE6=Nexxthursday ft. Quavo And Lil Yachty - Sway
TTITLE7=Lougotcash - Make 10
TTITLE8=Busta Rhymes ft. Vybz Kartel And Tory Lanez - Girlfriend
TTITLE9=Rich Homie Quan - Gamble
TTITLE10=Quality Control ft. Quavo, Offset And Takeoff - Too Hotty
TTITLE11=Ayo and Teo - Better Off Alone
TTITLE12=Yo Gotti - Juice
TTITLE13=Xxxtentacion - Jocelyn Flores
TTITLE14=Creek Boyz - With My Team
TTITLE15=Sam Smith - Too Good At Goodbyes
TTITLE16=Nav and Metro Boomin ft. Offset And Playboi Carti - Minute
TTITLE17=Calvin Harris ft. Kehlani and Lil Yachty - Faking It
TTITLE18=Meek Mill - 1942 Flows
EXTD=
EXTT0=
EXTT1=
EXTT2=
EXTT3=
EXTT4=
EXTT5=
EXTT6=
EXTT7=
EXTT8=
EXTT9=
EXTT10=
EXTT11=
EXTT12=
EXTT13=
EXTT14=
EXTT15=
EXTT16=
EXTT17=
EXTT18=
PLAYORDER=
